<svg t="1660792257656" class="icon" viewBox="0 0 1024 1024" version="1.1" xmlns="http://www.w3.org/2000/svg" p-id="4001" width="200" height="200"><path d="M518.920828 971.016828c198.550069 2.754207 309.318621-77.34731 370.899862-162.23338 63.611586-87.675586 84.109241-199.20331 64.388413-305.840551-71.379862-385.677241-435.288276-382.411034-435.288275-382.411035S155.030069 117.265655 83.650207 502.960552c-19.738483 106.637241 0.776828 218.14731 64.388414 305.840551 61.563586 84.868414 172.332138 164.969931 370.882207 162.215725z" fill="#FDC794" p-id="4002"></path><path d="M79.430621 531.862069c-7.997793-7.574069-17.390345-12.129103-27.524414-12.129103-28.672 0-51.906207 34.974897-51.906207 78.106482 0 43.131586 23.234207 78.106483 51.888552 78.106483 12.129103 0 23.145931-6.532414 31.973517-17.019586a417.28 417.28 0 0 1-4.431448-127.064276zM1020.875034 464.295724c-9.939862-41.966345-40.606897-70.603034-68.484413-63.947034-8.66869 2.065655-15.854345 7.591724-21.627587 15.095172a570.968276 570.968276 0 0 1 23.446069 87.51669c2.736552 14.777379 4.608 29.643034 5.790897 44.526345 9.18069 5.014069 18.926345 7.097379 28.389517 4.837517 27.877517-6.638345 42.425379-46.062345 32.485517-88.02869z" fill="#F9A671" p-id="4003"></path><path d="M245.406897 300.102621a17.602207 17.602207 0 0 1-12.482207-5.172966l-88.275862-88.275862a17.637517 17.637517 0 1 1 24.964413-24.964414l88.275862 88.275862a17.637517 17.637517 0 0 1-12.482206 30.13738zM298.390069 247.137103a17.655172 17.655172 0 0 1-15.819035-9.76331l-52.965517-105.931034a17.655172 17.655172 0 0 1 31.585104-15.80138l52.965517 105.931035a17.655172 17.655172 0 0 1-15.766069 25.564689zM368.993103 211.826759a17.637517 17.637517 0 0 1-16.737103-12.076138l-35.310345-105.931035a17.655172 17.655172 0 1 1 33.491862-11.175724l35.310345 105.931035a17.655172 17.655172 0 0 1-16.754759 23.251862zM457.25131 194.171586a17.655172 17.655172 0 0 1-17.390344-14.759724l-17.655173-105.931034a17.637517 17.637517 0 0 1 14.512552-20.303449 17.549241 17.549241 0 0 1 20.303448 14.512552l17.655173 105.931035a17.637517 17.637517 0 0 1-17.425656 20.55062zM527.889655 194.171586a17.655172 17.655172 0 0 1-17.655172-17.655172v-105.931035a17.655172 17.655172 0 1 1 35.310345 0v105.931035a17.655172 17.655172 0 0 1-17.655173 17.655172zM598.510345 194.171586a17.655172 17.655172 0 0 1-16.737104-23.251862l35.310345-105.931034a17.655172 17.655172 0 1 1 33.491862 11.175724l-35.310345 105.931034a17.655172 17.655172 0 0 1-16.754758 12.076138zM669.131034 211.826759a17.655172 17.655172 0 0 1-16.737103-23.251862l35.310345-105.931035a17.655172 17.655172 0 1 1 33.491862 11.175724l-35.310345 105.931035a17.655172 17.655172 0 0 1-16.754759 12.076138zM722.078897 247.137103a17.655172 17.655172 0 0 1-15.766069-25.547034l52.965517-105.931035a17.655172 17.655172 0 0 1 31.585103 15.80138l-52.965517 105.931034a17.655172 17.655172 0 0 1-15.819034 9.745655z" fill="#5E5F62" p-id="4004"></path><path d="M370.758621 459.087448m-105.931035 0a105.931034 105.931034 0 1 0 211.862069 0 105.931034 105.931034 0 1 0-211.862069 0Z" fill="#FFFFFF" p-id="4005"></path><path d="M617.931034 459.087448m-141.241379 0a141.241379 141.241379 0 1 0 282.482759 0 141.241379 141.241379 0 1 0-282.482759 0Z" fill="#FFFFFF" p-id="4006"></path><path d="M370.758621 459.087448m-35.310345 0a35.310345 35.310345 0 1 0 70.62069 0 35.310345 35.310345 0 1 0-70.62069 0Z" fill="#7F5B53" p-id="4007"></path><path d="M617.931034 459.087448m-52.965517 0a52.965517 52.965517 0 1 0 105.931035 0 52.965517 52.965517 0 1 0-105.931035 0Z" fill="#7F5B53" p-id="4008"></path><path d="M371.111724 896.282483a17.655172 17.655172 0 0 1-15.642483-25.811862A368.339862 368.339862 0 0 1 572.910345 688.110345a368.233931 368.233931 0 0 1 282.694621 24.964414 17.655172 17.655172 0 1 1-16.31338 31.320275c-79.536552-41.472-170.354759-49.505103-255.770483-22.59862a333.259034 333.259034 0 0 0-196.749241 165.005241 17.619862 17.619862 0 0 1-15.660138 9.480828z" fill="#F9A671" p-id="4009"></path><path d="M794.482759 776.880552a17.655172 17.655172 0 1 1 0-35.310345c29.201655 0 52.965517-23.763862 52.965517-52.965517a17.655172 17.655172 0 1 1 35.310345 0c0 48.67531-39.600552 88.275862-88.275862 88.275862zM406.068966 918.121931c-48.67531 0-88.275862-39.600552-88.275863-88.275862a17.655172 17.655172 0 1 1 35.310345 0c0 29.201655 23.763862 52.965517 52.965518 52.965517a17.655172 17.655172 0 1 1 0 35.310345z" fill="#F9A671" p-id="4010"></path></svg>